# xmcd
#
# Track frame offsets:
#	150
#	11463
#	28088
#	43869
#	57383
#	73848
#	88191
#	105325
#	119759
#	132429
#	147789
#
# Disc length: 2149 seconds
# Revision: 0
# Processed by: cddbd v1.5.2PL0 Copyright (c) Steve Scherf et al.
# Submitted via: dBpowerAMP V12.0
#
DISCID=a008630b
DTITLE=Bluebonnets, The - Tonewrecker
DYEAR=2017
DGENRE=Pop/Rock
TTITLE0=Why Ya Don't
TTITLE1=16 Minutes From 1965
TTITLE2=My Private Jet
TTITLE3=Bye Bye Baby
TTITLE4=Walk Don't Run
TTITLE5=Texas Gold
TTITLE6=Ding Ding Ding Ding
TTITLE7=Fall and Get Up
TTITLE8=Be My Man
TTITLE9=Make Me Shake
TTITLE10=Fly
EXTD=
EXTT0=
EXTT1=
EXTT2=
EXTT3=
EXTT4=
EXTT5=
EXTT6=
EXTT7=
EXTT8=
EXTT9=
EXTT10=
PLAYORDER=
